<?xml version="1.0" encoding="utf-8"?>
<!-- Generator: Adobe Illustrator 18.1.1, SVG Export Plug-In . SVG Version: 6.00 Build 0)  -->
<svg version="1.1" id="Layer" xmlns="http://www.w3.org/2000/svg" xmlns:xlink="http://www.w3.org/1999/xlink" x="0px" y="0px"
	 viewBox="0 0 883.5 883.5" enable-background="new 0 0 883.5 883.5" xml:space="preserve">
<g>
	<defs>
		<circle id="XMLID_1_" cx="441.7" cy="441.7" r="441.7"/>
	</defs>
	<use xlink:href="#XMLID_1_"  overflow="visible" fill="#2CCCD2"/>
	<clipPath id="XMLID_3_">
		<use xlink:href="#XMLID_1_"  overflow="visible"/>
	</clipPath>
	<polygon clip-path="url(#XMLID_3_)" fill="#58EEF4" points="692.7,-23.4 101.6,1017.7 -571,246 239.1,-267.1 	"/>
	<g clip-path="url(#XMLID_3_)">
		<rect x="234.9" y="168.9" fill="#D8D8D8" width="424" height="555"/>
		<rect x="229.9" y="164.9" fill="#EDEDED" width="425" height="555"/>
		<rect x="224.9" y="158.9" fill="#FFFFFF" width="424" height="555"/>
		<rect x="252.9" y="610.9" fill="#999999" width="115" height="9"/>
		<rect x="252.9" y="597.9" fill="#999999" width="350" height="9"/>
		<rect x="252.9" y="584.9" fill="#999999" width="369" height="9"/>
		<rect x="252.9" y="570.9" fill="#999999" width="369" height="9"/>
		<rect x="252.9" y="557.9" fill="#999999" width="369" height="9"/>
		<rect x="252.9" y="545.9" fill="#999999" width="265" height="9"/>
		<rect x="252.9" y="532.9" fill="#999999" width="369" height="9"/>
		<rect x="252.9" y="518.9" fill="#999999" width="369" height="9"/>
		<rect x="252.9" y="504.9" fill="#999999" width="369" height="9"/>
		<rect x="252.9" y="490.9" fill="#999999" width="369" height="9"/>
		<rect x="252.9" y="475.9" fill="#999999" width="307" height="9"/>
		<rect x="252.9" y="461.9" fill="#999999" width="369" height="9"/>
		<rect x="252.9" y="447.9" fill="#999999" width="369" height="9"/>
		<rect x="252.9" y="434.9" fill="#999999" width="369" height="9"/>
		<rect x="252.9" y="420.9" fill="#999999" width="369" height="9"/>
		<rect x="252.9" y="405.9" fill="#999999" width="369" height="9"/>
		<rect x="252.9" y="391.9" fill="#999999" width="369" height="9"/>
		<rect x="252.9" y="377.9" fill="#999999" width="97" height="9"/>
		<rect x="252.9" y="365.9" fill="#999999" width="369" height="9"/>
		<rect x="252.9" y="351.9" fill="#999999" width="369" height="9"/>
		<rect x="252.9" y="336.9" fill="#999999" width="369" height="9"/>
		<rect x="252.9" y="321.9" fill="#999999" width="369" height="9"/>
		<rect x="252.9" y="308.9" fill="#999999" width="369" height="9"/>
		<rect x="252.9" y="294.9" fill="#999999" width="369" height="9"/>
		<rect x="252.9" y="279.9" fill="#999999" width="369" height="9"/>
		<rect x="252.9" y="265.9" fill="#999999" width="369" height="9"/>
		<rect x="252.9" y="250.9" fill="#999999" width="369" height="9"/>
		<rect x="252.9" y="236.9" fill="#999999" width="369" height="9"/>
		<rect x="252.9" y="199.9" fill="#999999" width="210" height="16"/>
	</g>
</g>
<g id="Guides">
</g>
<path fill="#F8BC8A" d="M-895,319.9"/>
<g>
	<g id="Udda">
		<path fill="#CC965A" d="M419.3,575.2c0,0-49.5,35.7-54.3,38.4l13.9-66c0,0,10.6-5.8,26.2,5C420.7,563.5,419.3,575.2,419.3,575.2z"
			/>
		<path fill="#4C4C4C" d="M381.6,602.2c0,0-8.9-7.4-12.3-8.4c0,0-5.1,20-5.3,21.3c-0.2,1.3,0.7,0.7,1.5-0.1
			C366.3,614.2,381.6,602.2,381.6,602.2z"/>
	</g>
	<g id="Penna">
		<polygon fill="#F0C61A" points="656.3,168.8 670.7,178.6 408.5,562.3 406.9,558.9 402.8,558.4 401.1,554.9 394.1,552.4 		"/>
		<polygon fill="#FFD426" points="638.1,165.1 656.5,168.5 393.9,552.7 390.6,550.4 386.9,550.6 381.8,547.1 378.9,547.8 		"/>
		<polygon fill="#D4AE13" points="670.9,178.4 681.6,192.1 419.6,575.4 417,570.1 412.7,568.8 412.3,564 408.5,562.3 		"/>
	</g>
	<path id="Sudd" fill="#E26A7C" d="M681.3,191.9c0,0,9.4-15.3,12.9-18.9c3.5-3.6-5.8-16.2-20.3-25.2c-14.5-9-19.9-6.4-21.4-4.2
		c-1.5,2.2-12.1,17.7-12.1,17.7L681.3,191.9z"/>
	<g id="Metall">
		<path fill="#606060" d="M660.7,222.5c0,0,0.9-0.2,3.2-2.8c2.3-2.6,18.5-28,18.5-28s-3-12.6-20.9-23.5
			c-17.9-10.9-24.6-5.3-24.6-5.3l-16.3,25.6c0,0-2.4,4.1-2.1,5.2C618.9,195.8,638,195.8,660.7,222.5z"/>
		<path fill="none" stroke="#424242" stroke-miterlimit="10" d="M664.5,219c0,0-19.9-24.3-44.2-30.2"/>
		<path fill="none" stroke="#424242" stroke-miterlimit="10" d="M668.8,212.7c0,0-19.9-24.3-44.2-30.2"/>
		<path fill="none" stroke="#424242" stroke-miterlimit="10" d="M673.5,205.9c0,0-20.6-24.8-44.9-30.7"/>
		<path fill="none" stroke="#424242" stroke-miterlimit="10" d="M677.3,199.3c0,0-20.1-24.4-44.4-30.3"/>
		<path fill="none" stroke="#424242" stroke-miterlimit="10" d="M680.7,194.3c0,0-20.1-24.8-44.4-30.7"/>
		<path fill="#7F7F7F" d="M660.5,219.6c0,0-4.1-6.4-11.3-12C649.2,207.6,662.1,214.4,660.5,219.6z"/>
	</g>
</g>
<g>
	<polygon opacity="0.5" fill="#020202" points="355.4,383.1 472.5,327.3 401,205.5 	"/>
	<g>
		<g>
			<g>
				<circle fill="#87CDF9" cx="295.3" cy="272.9" r="123.7"/>
				<g>
					<path fill="#542F1A" d="M277.9,290.3c0,0,1,11.2-0.1,13.2c0,0,19.7,1.2,33.9-1.2c0,0-1-6.4-0.7-12
						C311,290.3,294.4,295.2,277.9,290.3z"/>
					<path fill="#F58A38" d="M269.2,392.9c8.7,2.5,76.2-0.3,76.2-6.9c0-11.5,5.8-57.4,5.8-57.4c0-5.8,0-15.1-10.8-20.1
						c-8.2-3.8-20-5.5-30.9-6.3v-0.1c0,0-6-0.4-14.5-0.4c-8.5,0-14.5,0.4-14.5,0.4v0.1c-11,0.7-22.6,2.5-30.9,6.3
						c-10.7,4.9-10.7,14.3-10.7,20.1c0,0,3.4,45.9,3.4,56C242.3,384.5,265.9,393.2,269.2,392.9"/>
					<g>
						<circle fill="#59341B" cx="295.1" cy="237.2" r="58.6"/>
						<path fill="#59341B" d="M361.4,243.1c0,4.9-4.6,12.9-8.9,12.9c-4.4,0-6.8-8-6.8-12.9c0-4.9,3.5-8.9,7.9-8.9
							C357.9,234.2,361.4,238.2,361.4,243.1z"/>
						<path fill="#59341B" d="M245.9,245.6c0,4.9-3.5,8.9-7.9,8.9c-4.4,0-7.9-4-7.9-8.9c0-4.9,4.4-13,8.7-13
							C243.2,232.6,245.9,240.7,245.9,245.6z"/>
					</g>
					<path fill="#542F1A" d="M267.9,303.5c0,0,26.6,20.7,50.8-0.5C318.7,303.1,294.9,298.3,267.9,303.5z"/>
					<g>
						<circle cx="323.7" cy="243.7" r="12.1"/>
						<circle fill="#FFFFFF" cx="327.8" cy="237.5" r="2.6"/>
					</g>
					<g>
						<circle cx="267.9" cy="243.7" r="12.1"/>
						<circle fill="#FFFFFF" cx="272.2" cy="237.5" r="2.6"/>
					</g>
					<path fill="#331D12" d="M295.8,276.3c-5.7,0-10-2.6-10.3-2.8c-0.5-0.3-0.6-0.9-0.3-1.4c0.3-0.5,0.9-0.6,1.4-0.3
						c0.4,0.2,9,5.5,17.8,0c0.5-0.3,1.1-0.1,1.4,0.3c0.3,0.5,0.1,1.1-0.3,1.4C302.1,275.6,298.7,276.3,295.8,276.3z"/>
					<path fill="#59341B" d="M222.9,373.2c0.2,0-7.3-7.1-7.3-7.1c3.8-19.9,8-30.2,8.8-33.7c1.2-5.7,6.9-9.4,12.6-8.2
						c5.7,1.2,9.4,6.8,8.2,12.6c-0.2,0.8-6.2,13.4-8.3,28.8c-0.8,5.8-2.7,14.3-2.7,14.3C233.9,379.9,223,373.2,222.9,373.2z"/>
					<path fill="#F58A38" d="M248.7,308.7c-15.5,6.9-21.6,16.2-28.7,26l22.6,26c0,0,15.3-20,19.9-29.9
						C267,321,264.2,301.7,248.7,308.7z"/>
					<path d="M353.5,210.8c-5.1-13.3-13.8-26.2-31.1-33.5c-9.2-3.9-37.1-16.2-72.7,13.7c0,0-27.2,11.3-13,41.7c0,0,9.8-26.3,15.5-31
						c0,0,22.2,9,47.1,17.5l-2.1-4.3c0,0,8.9,6.6,12.7,7.9c3.8,1.2,34.8,10.5,46,11.5C355.9,234.2,358.9,224.9,353.5,210.8z"/>
				</g>
				<g>
					<path fill="#FFFFFF" d="M295.3,398.4c-69.3,0-125.6-56.3-125.6-125.6c0-69.3,56.3-125.6,125.6-125.6
						c69.3,0,125.6,56.3,125.6,125.6C420.9,342,364.6,398.4,295.3,398.4z M295.3,152.6c-66.3,0-120.2,53.9-120.2,120.2
						c0,66.3,53.9,120.2,120.2,120.2c66.3,0,120.2-53.9,120.2-120.2C415.5,206.5,361.6,152.6,295.3,152.6z"/>
				</g>
				<path fill="#59341B" d="M420,206.2c-0.1,0-0.1-0.1-0.2-0.1c-5.5-1.9-12.4,0.7-13.5,6.5c-12.1,63.9-66.5,114-67,114.7
					c-3.7,4.5-3.1,11.2,1.5,14.9c4.5,3.7,11.2,3.1,14.9-1.5c2.4-2.9,58.2-60.9,70.6-121.1C427.4,214,425.4,208.3,420,206.2z"/>
				<path fill="#F58A38" d="M332.9,334c0,0,12.9-33.7,23.9-31.3c11,2.5,25.1,11.4,25.1,15.6c0,4.2-23.8,27.1-33.3,32.4
					C339.1,356,333.3,340.3,332.9,334z"/>
			</g>
		</g>
	</g>
</g>
<g>
	<polygon opacity="0.5" fill="#020202" points="602,478.1 363.9,453.2 456.4,657.5 	"/>
	<g>
		<g>
			<g>
				<circle fill="#87CDF9" cx="567.3" cy="598.9" r="123.7"/>
				<g>
					<path fill="#FAAF89" d="M634.8,701.9c0,0-1.8-5.1-4.3-16.1c-4.4-19.1-5.2-24.5-5.2-24.7l-0.1-0.7l-0.2-0.7
						c-3.2-13.3-14.8-18.8-16.1-19.4c-6-2.6-13.1,0.1-15.7,6.1c-2.6,6,0.1,13.1,6.1,15.7c0,0,1.8,1.1,2.4,2.7
						c0.5,4.2,10.7,48.3,10.7,48.3L634.8,701.9z"/>
					<path fill="#FAAF89" d="M608.6,699.6c-1.5-19.8,8.7-43.9,8.7-43.9c0-5.5,0-10.8-10.2-15.4c-7.8-3.6-14.5-5.2-24.9-5.9v-17.5
						c0,0-5.7-0.4-13.7-0.4c-8,0-13.7,0.4-13.7,0.4v17.5c-10.3,0.7-15.5,2.3-23.3,5.9c-10.1,4.7-10.1,10-10.1,15.4
						c0,0,0.4,25.6,3.9,43.9c3.5,18.3,0.4,15.9,0.4,15.9l85.4-0.9C611.2,714.6,609.4,709.1,608.6,699.6z"/>
					<g>
						<circle fill="#FFB58D" cx="568.7" cy="572.4" r="55.3"/>
						<path fill="#FFB58D" d="M631.3,578c0,4.6-4.3,12.1-8.4,12.1c-4.1,0-6.5-7.5-6.5-12.1c0-4.6,3.3-8.4,7.5-8.4
							C628,569.6,631.3,573.3,631.3,578z"/>
						<path fill="#FFB58D" d="M522.2,580.4c0,4.6-3.3,8.4-7.4,8.4c-4.1,0-7.4-3.8-7.4-8.4c0-4.6,4.1-12.3,8.2-12.3
							C519.7,568,522.2,575.7,522.2,580.4z"/>
					</g>
					<path d="M569.1,520.9c49.4,1,52.6,48.8,52.6,48.8s6.6,2,6.4,9.7c-0.3,8.1-8.1,9.6-8.1,9.6c-1,11.6-15.1,24.7-15.1,24.7
						c3.4,10,15.1,16.8,15.1,16.8h10c2.2-4.7,21.6-33.2,6-72.9c-26.4-67.5-66.9-48.3-66.9-48.3l-0.6,0l-0.4-0.1
						c0,0-40.6-19-66.9,48.5c-15.5,39.7,3.8,68.3,6,72.9h10c0,0,11.2-7.5,14.6-17.5c0,0-12.9-11-14.6-23.9c0,0-7.8-1.7-8.1-9.8
						c-0.2-7.8,6.4-9.5,6.4-9.5s3.2-47.8,52.6-48.8H569.1z"/>
					<rect x="506.8" y="631.6" fill="#FF38AE" width="9.8" height="2.6"/>
					<path d="M507.1,635.2c0,0-5.6,7.3,4,15.1c0,0,9.1-4.7,5.9-15.1H507.1z"/>
					<rect x="620" y="631.6" fill="#FF38AE" width="9.8" height="2.6"/>
					<path d="M630,635.2c0,0,5.6,7.3-4,15.1c0,0-9.1-4.7-5.9-15.1H630z"/>
					<g>
						<circle cx="595.7" cy="578.5" r="11.4"/>
						<circle fill="#FFFFFF" cx="599.5" cy="572.7" r="2.5"/>
					</g>
					<g>
						<circle cx="543" cy="578.5" r="11.4"/>
						<circle fill="#FFFFFF" cx="547.1" cy="572.7" r="2.5"/>
					</g>
					<path fill="#B27A5B" d="M569.4,609.5c-5.5,0-9.6-2.5-9.8-2.7c-0.5-0.3-0.7-1.1-0.4-1.6c0.3-0.5,1.1-0.7,1.6-0.4
						c0.3,0.2,8.4,5.1,16.5,0c0.5-0.3,1.3-0.2,1.6,0.4c0.3,0.5,0.2,1.3-0.4,1.6C575.4,608.9,572.2,609.5,569.4,609.5z"/>
					<path d="M514.4,560.4c0,0,52.1-24.7,108.3,0c0,0-10-44.9-57.4-44.9C517.9,515.5,514.4,560.4,514.4,560.4z"/>
					<path fill="#D63E71" d="M524,642.6c0,0-2.6,12.9-2.6,35.6c0,12.1,3.6,20.6,3.4,28.4c-0.2,7.8-0.7,7.4-0.4,9.1
						c0,0,40.5,14.3,87.7-0.8c0,0-1.8-2.4-2.3-9c-0.8-9.9,7.9-53.4,6.6-60.2c0,0-3.2-8.9-17.1-8.5c0,0-7.2,20.6-32.6,20.2
						c-25.5-0.4-25.9-20.7-25.9-20.7S525.5,636.9,524,642.6z"/>
				</g>
				<g>
					<path fill="#FFFFFF" d="M567.3,724.4c-69.3,0-125.6-56.3-125.6-125.6c0-69.3,56.3-125.6,125.6-125.6
						c69.3,0,125.6,56.3,125.6,125.6C692.9,668,636.6,724.4,567.3,724.4z M567.3,478.6c-66.3,0-120.2,53.9-120.2,120.2
						c0,66.3,53.9,120.2,120.2,120.2c66.3,0,120.2-53.9,120.2-120.2C687.5,532.5,633.6,478.6,567.3,478.6z"/>
				</g>
				<path fill="#FAAF89" d="M438.9,586.7c0.6-1.5,1.6-3,2.9-4.2c4.8-4.5,12.4-4.2,16.8,0.6c4.3,4.6,7.9,8.6,11,12.1
					c9.2,10.2,14.3,15.8,23.2,22.6c15.7,11.9,31.3,20.6,31.5,20.7l0.6,0.3l0.6,0.4c11.1,8,6.1,11.6,6.2,13l1.6,4.6c0,0-1,4.9-1,5.1
					c0,0-2.3,4.5-14.8-0.5c-3.7-2.1-24-13.1-39-24.5c-10.7-8.1-17-15.1-26.5-25.6c-3.1-3.4-6.6-7.3-10.8-11.8
					C437.9,595.9,437.2,590.9,438.9,586.7z"/>
			</g>
		</g>
	</g>
</g>
<path fill="#D63E71" d="M528,638.9c0,0-2.8,0.6-4.9,7.6c-0.8,2.5-1.3,12.4-1.3,16.3c0,3.9,11.6,5.1,11.6,5.1l6.3-10.5l-4.1-14.6
	L528,638.9z"/>
</svg>
