<?xml version="1.0" encoding="utf-8"?>
<!-- Generator: Adobe Illustrator 18.1.1, SVG Export Plug-In . SVG Version: 6.00 Build 0)  -->
<svg version="1.1" id="Layer" xmlns="http://www.w3.org/2000/svg" xmlns:xlink="http://www.w3.org/1999/xlink" x="0px" y="0px"
	 viewBox="0 0 883.5 883.5" enable-background="new 0 0 883.5 883.5" xml:space="preserve">
<g>
	<defs>
		<circle id="XMLID_1_" cx="441.7" cy="441.7" r="441.7"/>
	</defs>
	<use xlink:href="#XMLID_1_"  overflow="visible" fill="#2CCCD2"/>
	<clipPath id="XMLID_3_">
		<use xlink:href="#XMLID_1_"  overflow="visible"/>
	</clipPath>
	<polygon clip-path="url(#XMLID_3_)" fill="#58EEF4" points="692.7,-23.4 101.6,1017.7 -571,246 239.1,-267.1 	"/>
	<g clip-path="url(#XMLID_3_)">
		<rect x="234.9" y="168.9" fill="#D8D8D8" width="424" height="555"/>
		<rect x="229.9" y="164.9" fill="#EDEDED" width="425" height="555"/>
		<rect x="224.9" y="158.9" fill="#FFFFFF" width="424" height="555"/>
		<rect x="252.9" y="208.9" fill="#999999" width="353" height="26"/>
		<rect x="252.9" y="375.9" fill="#999999" width="371" height="28"/>
		<rect x="252.9" y="315.9" fill="#999999" width="371" height="28"/>
		<rect x="252.9" y="262.9" fill="#999999" width="300" height="29"/>
		<rect x="252.9" y="426.9" fill="#999999" width="66" height="29"/>
		<rect x="252.9" y="639.9" fill="#999999" width="87" height="31"/>
		<rect x="252.9" y="481.9" fill="#999999" width="371" height="26"/>
		<rect x="252.9" y="595.9" fill="#999999" width="359" height="27"/>
		<rect x="252.9" y="539.9" fill="#999999" width="346" height="31"/>
	</g>
	<g clip-path="url(#XMLID_3_)">
		<path fill="#E2A97F" d="M752.9,1113.3L537.1,600.2c0,0-39.6-32.7-46.3-48.4c-6.7-15.7-6.2-67-6.2-67S427.2,349,424.6,343
			c-2.6-6-3.5-17.1,7.6-21.8c11.1-4.7,20.9,2.7,24.8,10.7c3.9,8.1,47.2,97.9,47.2,97.9s1.1-7.6,12.2-12.3c11.1-4.7,17.9,6,20.7,4.8
			c2.8-1.2,8.8-7.6,18.5-11.7c9.7-4.1,18,7.6,25,7.4c7-0.3,13.7-2.6,22.7,4.5c9,7.1,17.9,16.4,23.8,30.3c5.9,13.9,8.9,36.1,9.6,53.3
			c0.8,17.2,2.1,42,2.1,42l220.8,519.7L752.9,1113.3z"/>
		<path fill="#FFF3E2" d="M432.1,346.9c0,0,4.9-0.5,11.1-3.1c6.1-2.6,10.2-5.9,10.2-5.9s-0.8-5.8-1.9-8.2
			c-2.8-6.5-11.6-9.8-16.6-7.7c-5,2.1-10.4,11.5-7.7,17.8C428.6,343.3,432.1,346.9,432.1,346.9z"/>
	</g>
</g>
<g id="Guides">
</g>
<path fill="#F8BC8A" d="M-895,319.9"/>
</svg>
