<?xml version="1.0" encoding="utf-8"?>
<!-- Generator: Adobe Illustrator 18.1.1, SVG Export Plug-In . SVG Version: 6.00 Build 0)  -->
<svg version="1.1" id="Layer" xmlns="http://www.w3.org/2000/svg" xmlns:xlink="http://www.w3.org/1999/xlink" x="0px" y="0px"
	 viewBox="0 0 883.5 883.5" enable-background="new 0 0 883.5 883.5" xml:space="preserve">
<g>
	<defs>
		<circle id="XMLID_1_" cx="441.7" cy="441.7" r="441.7"/>
	</defs>
	<use xlink:href="#XMLID_1_"  overflow="visible" fill="#2CCCD2"/>
	<clipPath id="XMLID_3_">
		<use xlink:href="#XMLID_1_"  overflow="visible"/>
	</clipPath>
	<polygon clip-path="url(#XMLID_3_)" fill="#58EEF4" points="692.7,-23.4 101.6,1017.7 -571,246 239.1,-267.1 	"/>
</g>
<g id="Guides">
</g>
<g>
	<rect x="175.9" y="255.9" fill="#D8D8D8" width="289" height="378"/>
	<rect x="172.9" y="252.9" fill="#EDEDED" width="289" height="378"/>
	<rect x="168.9" y="248.9" fill="#FFFFFF" width="289" height="378"/>
	<rect x="187.9" y="282.9" fill="#999999" width="241" height="18"/>
	<rect x="187.9" y="396.9" fill="#999999" width="253" height="19"/>
	<rect x="187.9" y="355.9" fill="#999999" width="253" height="19"/>
	<rect x="187.9" y="319.9" fill="#999999" width="204" height="20"/>
	<rect x="187.9" y="430.9" fill="#999999" width="45" height="21"/>
	<rect x="187.9" y="576.9" fill="#999999" width="59" height="21"/>
	<rect x="187.9" y="468.9" fill="#999999" width="253" height="18"/>
	<rect x="187.9" y="546.9" fill="#999999" width="245" height="18"/>
	<rect x="187.9" y="508.9" fill="#999999" width="236" height="21"/>
</g>
<path fill="#FFFFFF" d="M604.7,332.5c-49.1,0-90.6,32.3-104.3,76.9c-0.3,1-0.9,2.9-0.9,2.9l81.6,29.4l-79.9,35.1
	c0,0,1.2,3.4,1.9,5.1c16,40.5,55.5,69.1,101.6,69.1c60.3,0,109.2-48.9,109.2-109.2S665,332.5,604.7,332.5z M572.7,400.1
	c-7.3,0-13.1-5.9-13.1-13.1c0-7.3,5.9-13.1,13.1-13.1s13.1,5.9,13.1,13.1C585.8,394.2,579.9,400.1,572.7,400.1z"/>
</svg>
