<?xml version="1.0" encoding="utf-8"?>
<!-- Generator: Adobe Illustrator 18.1.1, SVG Export Plug-In . SVG Version: 6.00 Build 0)  -->
<svg version="1.1" id="Layer" xmlns="http://www.w3.org/2000/svg" xmlns:xlink="http://www.w3.org/1999/xlink" x="0px" y="0px"
	 viewBox="0 0 883.5 883.5" enable-background="new 0 0 883.5 883.5" xml:space="preserve">
<g>
	<defs>
		<circle id="XMLID_1_" cx="441.7" cy="441.7" r="441.7"/>
	</defs>
	<use xlink:href="#XMLID_1_"  overflow="visible" fill="#2CCCD2"/>
	<clipPath id="XMLID_3_">
		<use xlink:href="#XMLID_1_"  overflow="visible"/>
	</clipPath>
	<polygon clip-path="url(#XMLID_3_)" fill="#58EEF4" points="692.7,-23.4 101.6,1017.7 -571,246 239.1,-267.1 	"/>
	<g clip-path="url(#XMLID_3_)">
		<rect x="234.9" y="168.9" fill="#D8D8D8" width="424" height="555"/>
		<rect x="229.9" y="164.9" fill="#EDEDED" width="425" height="555"/>
		<rect x="224.9" y="158.9" fill="#FFFFFF" width="424" height="555"/>
		<rect x="252.9" y="610.9" fill="#999999" width="115" height="9"/>
		<rect x="252.9" y="597.9" fill="#999999" width="350" height="9"/>
		<rect x="252.9" y="584.9" fill="#999999" width="369" height="9"/>
		<rect x="252.9" y="570.9" fill="#999999" width="369" height="9"/>
		<rect x="252.9" y="557.9" fill="#999999" width="369" height="9"/>
		<rect x="252.9" y="545.9" fill="#999999" width="265" height="9"/>
		<rect x="252.9" y="532.9" fill="#999999" width="369" height="9"/>
		<rect x="252.9" y="518.9" fill="#999999" width="369" height="9"/>
		<rect x="252.9" y="504.9" fill="#999999" width="369" height="9"/>
		<rect x="252.9" y="490.9" fill="#999999" width="369" height="9"/>
		<rect x="252.9" y="475.9" fill="#999999" width="307" height="9"/>
		<rect x="252.9" y="461.9" fill="#999999" width="369" height="9"/>
		<rect x="252.9" y="447.9" fill="#999999" width="369" height="9"/>
		<rect x="252.9" y="434.9" fill="#999999" width="369" height="9"/>
		<rect x="252.9" y="420.9" fill="#999999" width="369" height="9"/>
		<rect x="252.9" y="405.9" fill="#999999" width="369" height="9"/>
		<rect x="252.9" y="391.9" fill="#999999" width="369" height="9"/>
		<rect x="252.9" y="377.9" fill="#999999" width="97" height="9"/>
		<rect x="252.9" y="365.9" fill="#999999" width="369" height="9"/>
		<rect x="252.9" y="351.9" fill="#999999" width="369" height="9"/>
		<rect x="252.9" y="336.9" fill="#999999" width="369" height="9"/>
		<rect x="252.9" y="321.9" fill="#999999" width="369" height="9"/>
		<rect x="252.9" y="308.9" fill="#999999" width="369" height="9"/>
		<rect x="252.9" y="294.9" fill="#999999" width="369" height="9"/>
		<rect x="252.9" y="279.9" fill="#999999" width="369" height="9"/>
		<rect x="252.9" y="265.9" fill="#999999" width="369" height="9"/>
		<rect x="252.9" y="250.9" fill="#999999" width="369" height="9"/>
		<rect x="252.9" y="236.9" fill="#999999" width="369" height="9"/>
		<rect x="252.9" y="199.9" fill="#999999" width="210" height="16"/>
	</g>
</g>
<g id="Guides">
</g>
<path fill="#F8BC8A" d="M-895,319.9"/>
<g>
	<g id="Udda">
		<path fill="#CC965A" d="M419.3,575.2c0,0-49.5,35.7-54.3,38.4l13.9-66c0,0,10.6-5.8,26.2,5C420.7,563.5,419.3,575.2,419.3,575.2z"
			/>
		<path fill="#4C4C4C" d="M381.6,602.2c0,0-8.9-7.4-12.3-8.4c0,0-5.1,20-5.3,21.3c-0.2,1.3,0.7,0.7,1.5-0.1
			C366.3,614.2,381.6,602.2,381.6,602.2z"/>
	</g>
	<g id="Penna">
		<polygon fill="#F0C61A" points="656.3,168.8 670.7,178.6 408.5,562.3 406.9,558.9 402.8,558.4 401.1,554.9 394.1,552.4 		"/>
		<polygon fill="#FFD426" points="638.1,165.1 656.5,168.5 393.9,552.7 390.6,550.4 386.9,550.6 381.8,547.1 378.9,547.8 		"/>
		<polygon fill="#D4AE13" points="670.9,178.4 681.6,192.1 419.6,575.4 417,570.1 412.7,568.8 412.3,564 408.5,562.3 		"/>
	</g>
	<path id="Sudd" fill="#E26A7C" d="M681.3,191.9c0,0,9.4-15.3,12.9-18.9c3.5-3.6-5.8-16.2-20.3-25.2c-14.5-9-19.9-6.4-21.4-4.2
		c-1.5,2.2-12.1,17.7-12.1,17.7L681.3,191.9z"/>
	<g id="Metall">
		<path fill="#606060" d="M660.7,222.5c0,0,0.9-0.2,3.2-2.8c2.3-2.6,18.5-28,18.5-28s-3-12.6-20.9-23.5
			c-17.9-10.9-24.6-5.3-24.6-5.3l-16.3,25.6c0,0-2.4,4.1-2.1,5.2C618.9,195.8,638,195.8,660.7,222.5z"/>
		<path fill="none" stroke="#424242" stroke-miterlimit="10" d="M664.5,219c0,0-19.9-24.3-44.2-30.2"/>
		<path fill="none" stroke="#424242" stroke-miterlimit="10" d="M668.8,212.7c0,0-19.9-24.3-44.2-30.2"/>
		<path fill="none" stroke="#424242" stroke-miterlimit="10" d="M673.5,205.9c0,0-20.6-24.8-44.9-30.7"/>
		<path fill="none" stroke="#424242" stroke-miterlimit="10" d="M677.3,199.3c0,0-20.1-24.4-44.4-30.3"/>
		<path fill="none" stroke="#424242" stroke-miterlimit="10" d="M680.7,194.3c0,0-20.1-24.8-44.4-30.7"/>
		<path fill="#7F7F7F" d="M660.5,219.6c0,0-4.1-6.4-11.3-12C649.2,207.6,662.1,214.4,660.5,219.6z"/>
	</g>
</g>
</svg>
